# xmcd CD database file
# Copyright (C) 1993-1998 Ti Kan
# 
# Track frame offsets:
#     150
#     15070
#     36860
#     51395
#     59495
#     77350
#     110630
#     121955
#     137970
#     150925
#     172982
#     186865
#     220682
#     242225
# 
# Disc length: 3480 seconds
# 
# Revision: 1
# Processed by: cddbd v1.4b41PL1 Copyright (c) Steve Scherf et al.
# Submitted via: DiscPlay 4.0.4
# 
DISCID=b30d960e
DTITLE=Jeff Beck - Meus Momentos
DYEAR=1900
DGENRE=
TTITLE0=Shapes Of Things
TTITLE1=All Shook Up
TTITLE2=Jailhouse Rock
TTITLE3=Greensleeves
TTITLE4=Ol' Man River
TTITLE5=Rice Pudding
TTITLE6=You Shook Me
TTITLE7=Spanish Boots
TTITLE8=Beck's Bolero
TTITLE9=Ain't Superstitious
TTITLE10=Plynth (Water Down The Drain)
TTITLE11=Blues Deluxe
TTITLE12=Hangman's Knee
TTITLE13=Rock My Plimsoll
EXTD=
EXTT0=
EXTT1=
EXTT2=
EXTT3=
EXTT4=
EXTT5=
EXTT6=
EXTT7=
EXTT8=
EXTT9=
EXTT10=
EXTT11=
EXTT12=
EXTT13=
PLAYORDER=
